<svg width="34" height="34" viewBox="0 0 34 34" fill="none" xmlns="http://www.w3.org/2000/svg">
<path d="M16.6057 26.4517C17.1054 26.4517 17.5274 26.2793 17.8719 25.9346C18.2163 25.5895 18.3886 25.167 18.3886 24.6671C18.3886 24.1675 18.216 23.7455 17.871 23.401C17.526 23.0568 17.1036 22.8847 16.604 22.8847C16.1044 22.8847 15.6823 23.0573 15.3379 23.4023C14.9934 23.7474 14.8212 24.1697 14.8212 24.6693C14.8212 25.1689 14.9937 25.591 15.3387 25.9354C15.6838 26.2796 16.1061 26.4517 16.6057 26.4517ZM15.3663 20.1854H17.8299C17.8523 19.3241 17.9785 18.6359 18.2083 18.1208C18.4384 17.606 18.9965 16.9235 19.8826 16.0733C20.6523 15.3036 21.2418 14.5928 21.651 13.9409C22.0605 13.2894 22.2652 12.5198 22.2652 11.6322C22.2652 10.1258 21.7241 8.94906 20.6417 8.10206C19.559 7.25535 18.2785 6.832 16.8 6.832C15.3393 6.832 14.1307 7.22181 13.174 8.00144C12.217 8.78106 11.5344 9.69923 11.1261 10.7559L13.3739 11.6576C13.5871 11.0766 13.9517 10.5106 14.4677 9.95969C14.9836 9.40902 15.7499 9.13369 16.7663 9.13369C17.8006 9.13369 18.565 9.4169 19.0597 9.98331C19.5546 10.55 19.8021 11.1732 19.8021 11.8527C19.8021 12.4475 19.6327 12.9916 19.2937 13.4851C18.9551 13.9786 18.5233 14.4553 17.9983 14.9152C16.8494 15.9518 16.1236 16.7787 15.8209 17.3959C15.5178 18.0127 15.3663 18.9426 15.3663 20.1854ZM16.6281 33.25C14.3286 33.25 12.1672 32.8137 10.1439 31.941C8.12058 31.0683 6.36067 29.884 4.86412 28.3881C3.36758 26.8921 2.18269 25.1329 1.30944 23.1105C0.436479 21.0881 0 18.9273 0 16.6281C0 14.3286 0.436333 12.1672 1.309 10.1439C2.18167 8.12058 3.36598 6.36067 4.86194 4.86412C6.3579 3.36758 8.11708 2.18269 10.1395 1.30944C12.1619 0.436479 14.3227 0 16.6219 0C18.9214 0 21.0828 0.436333 23.1061 1.309C25.1294 2.18167 26.8893 3.36598 28.3859 4.86194C29.8824 6.3579 31.0673 8.11708 31.9406 10.1395C32.8135 12.1619 33.25 14.3227 33.25 16.6219C33.25 18.9214 32.8137 21.0828 31.941 23.1061C31.0683 25.1294 29.884 26.8893 28.3881 28.3859C26.8921 29.8824 25.1329 31.0673 23.1105 31.9406C21.0881 32.8135 18.9273 33.25 16.6281 33.25ZM16.625 30.625C20.5333 30.625 23.8438 29.2687 26.5562 26.5562C29.2687 23.8438 30.625 20.5333 30.625 16.625C30.625 12.7167 29.2687 9.40625 26.5562 6.69375C23.8438 3.98125 20.5333 2.625 16.625 2.625C12.7167 2.625 9.40625 3.98125 6.69375 6.69375C3.98125 9.40625 2.625 12.7167 2.625 16.625C2.625 20.5333 3.98125 23.8438 6.69375 26.5562C9.40625 29.2687 12.7167 30.625 16.625 30.625Z" fill="white"/>
</svg>
