<svg width="44" height="42" viewBox="0 0 44 42" fill="none" xmlns="http://www.w3.org/2000/svg">
<path d="M7.5 33.4744V31.3804H10.5128V18.4594C10.5128 16.2078 11.2 14.2057 12.5742 12.4529C13.9485 10.7002 15.7293 9.60228 17.9167 9.15925V8.25008C17.9167 7.67139 18.119 7.1795 18.5238 6.77442C18.9285 6.36931 19.4199 6.16675 19.9981 6.16675C20.5762 6.16675 21.0683 6.36931 21.4743 6.77442C21.8803 7.1795 22.0833 7.67139 22.0833 8.25008V9.16458C24.2706 9.60405 26.0514 10.7002 27.4257 12.4529C28.7999 14.2057 29.4871 16.2078 29.4871 18.4594V31.3804H32.4999V33.4744H7.5ZM19.9971 38.1538C19.1678 38.1538 18.4588 37.8588 17.8702 37.2688C17.2815 36.6788 16.9872 35.9696 16.9872 35.141H23.0128C23.0128 35.9722 22.7175 36.6822 22.1269 37.2708C21.5364 37.8595 20.8264 38.1538 19.9971 38.1538ZM12.6068 31.3805H27.3932V18.4595C27.3932 16.4132 26.6725 14.6694 25.2313 13.2282C23.79 11.7869 22.0463 11.0662 20 11.0662C17.9537 11.0662 16.2099 11.7869 14.7686 13.2281C13.3274 14.6694 12.6068 16.4131 12.6068 18.4594V31.3805Z" fill="white"/>
</svg>
